<svg version="1.1" id="Layer_1" xmlns="http://www.w3.org/2000/svg" xmlns:xlink="http://www.w3.org/1999/xlink" x="0px" y="0px"
	 width="100%" viewBox="0 0 1920 1920" enable-background="new 0 0 1920 1920" xml:space="preserve">
<path fill="#FFFFFF" opacity="1.000000" stroke="none" 
	d="
M1738.000000,1921.000000 
	C1158.666626,1921.000000 579.833313,1921.000000 1.000000,1921.000000 
	C1.000000,1281.000000 1.000000,641.000000 1.000000,1.000000 
	C641.000000,1.000000 1281.000000,1.000000 1921.000000,1.000000 
	C1921.000000,641.000000 1921.000000,1281.000000 1921.000000,1921.000000 
	C1860.166626,1921.000000 1799.333374,1921.000000 1738.000000,1921.000000 
M214.000000,990.500000 
	C214.000000,1006.589844 214.000000,1022.679688 214.000000,1038.614258 
	C232.408203,1038.614258 250.133270,1038.614258 268.178833,1038.614258 
	C268.178833,1010.956299 268.178833,983.683044 268.178833,956.298157 
	C293.564301,956.298157 318.620636,956.298157 344.180420,956.298157 
	C344.180420,983.985901 344.180420,1011.378784 344.180420,1038.611938 
	C362.412842,1038.611938 380.137970,1038.611938 397.747986,1038.611938 
	C397.747986,970.287720 397.747986,902.351807 397.747986,834.297363 
	C379.771118,834.297363 362.047607,834.297363 343.821075,834.297363 
	C343.821075,860.651123 343.821075,886.711182 343.821075,912.613342 
	C318.256989,912.613342 293.199585,912.613342 267.819275,912.613342 
	C267.819275,886.287781 267.819275,860.347717 267.819275,834.299866 
	C249.766068,834.299866 232.042542,834.299866 214.000000,834.299866 
	C214.000000,886.232727 214.000000,937.866333 214.000000,990.500000 
M465.582947,905.062988 
	C467.153015,908.176270 468.723053,911.289551 470.628510,915.067993 
	C458.610107,914.394958 448.031342,915.968567 438.875122,922.682800 
	C429.743591,929.378845 424.393524,938.492004 421.700317,949.521362 
	C442.649689,952.277588 462.822235,957.682922 466.827698,965.264465 
	C438.732513,973.489075 426.340576,994.200867 427.573639,1016.135193 
	C431.063568,1014.722107 434.379608,1013.041138 437.887787,1012.021057 
	C449.284515,1008.707336 460.787109,1007.693726 472.765503,1008.795288 
	C486.903564,1010.095520 499.789795,1014.317078 510.500122,1023.258301 
	C527.107605,1037.122681 546.334595,1042.991699 567.345825,1043.896851 
	C580.694885,1044.471802 593.737915,1041.908081 606.147949,1036.901855 
	C625.169067,1029.228638 637.512878,1015.745605 641.561646,995.000610 
	C626.209961,995.000610 611.049255,994.973328 595.889099,995.053162 
	C594.696716,995.059448 592.916443,995.446594 592.408264,996.271851 
	C586.402161,1006.024536 577.250183,1008.393982 566.595093,1008.047668 
	C550.729492,1007.531921 538.720642,994.183960 540.396667,978.020508 
	C574.412170,978.020508 608.483582,978.020508 642.485229,978.020508 
	C643.837036,967.837036 642.563904,954.007080 640.017151,945.348328 
	C633.267700,922.401184 619.251282,905.718628 596.037292,899.410706 
	C581.372437,895.425903 568.015625,889.870178 555.197205,881.870605 
	C541.119202,873.085144 525.371521,867.686523 508.851776,866.180908 
	C487.057800,864.194580 465.922729,867.341919 446.701996,878.772644 
	C441.301910,881.984131 436.171112,885.648438 429.606415,889.967041 
	C443.560455,892.479797 456.003479,894.651550 465.582947,905.062988 
M1684.458252,1091.030273 
	C1687.643799,1087.661987 1691.275757,1084.611206 1693.936523,1080.869629 
	C1704.702881,1065.730103 1707.593994,1048.059082 1707.825073,1030.207764 
	C1708.370361,988.071350 1708.000000,945.922974 1708.000000,903.779419 
	C1708.000000,902.329102 1708.000000,900.878723 1708.000000,899.278442 
	C1691.128052,899.278442 1674.742065,899.278442 1657.809814,899.278442 
	C1657.809814,903.881592 1657.809814,908.224976 1657.809814,912.257385 
	C1652.786499,908.402344 1648.396606,903.912476 1643.097534,901.195984 
	C1631.458862,895.229614 1619.012207,894.115845 1605.903687,895.823486 
	C1587.306274,898.246277 1572.463501,906.741028 1561.360229,921.410461 
	C1548.074463,938.963257 1543.223389,958.814941 1545.827026,980.902161 
	C1548.139282,1000.516541 1556.377563,1016.427979 1571.931152,1028.339355 
	C1590.058838,1042.222046 1610.483765,1044.741333 1632.249756,1039.341797 
	C1642.151733,1036.885376 1649.992065,1030.886108 1658.131470,1023.731201 
	C1657.708862,1029.691895 1658.088989,1034.918213 1656.820435,1039.708008 
	C1654.977295,1046.666748 1653.229736,1054.247070 1649.126953,1059.875366 
	C1642.509399,1068.953735 1631.644043,1068.902832 1621.581299,1067.610107 
	C1614.238281,1066.666992 1607.478149,1063.654541 1604.181885,1055.871826 
	C1603.739258,1054.826782 1601.359619,1054.090698 1599.870239,1054.078979 
	C1583.880005,1053.952271 1567.888306,1053.992554 1551.897095,1054.014404 
	C1550.635620,1054.016235 1549.374268,1054.221924 1547.787476,1054.361572 
	C1548.068726,1056.866211 1548.137695,1059.013672 1548.569702,1061.085327 
	C1552.080322,1077.923218 1563.630859,1088.162476 1577.839233,1095.920776 
	C1598.558838,1107.234375 1620.748169,1110.029053 1644.009521,1107.096313 
	C1658.728027,1105.240845 1672.160278,1100.633789 1684.458252,1091.030273 
M855.999451,921.495605 
	C853.702454,924.860229 851.129761,928.071411 849.157043,931.616455 
	C841.430359,945.501831 839.207642,960.532715 839.944885,976.244324 
	C840.539001,988.907166 843.912109,1000.578186 850.759521,1011.259033 
	C867.944031,1038.064575 897.733398,1046.335571 925.887512,1039.854736 
	C935.887268,1037.552856 944.387024,1032.034424 951.825989,1024.423218 
	C951.876221,1031.144409 952.078918,1037.781738 950.750183,1044.096924 
	C949.231140,1051.316162 947.145020,1058.724121 940.278381,1063.186035 
	C933.200012,1067.785767 925.212585,1068.905640 917.130493,1067.829468 
	C909.486572,1066.811523 902.746765,1063.702515 898.892212,1056.182739 
	C898.298645,1055.024902 896.085144,1054.144653 894.590027,1054.096558 
	C887.766663,1053.876953 880.932190,1054.000000 874.101746,1054.000000 
	C863.473816,1054.000000 852.845825,1054.000000 841.808777,1054.000000 
	C843.880981,1068.118530 849.155457,1079.604370 860.512207,1088.138184 
	C875.484436,1099.388672 892.226074,1106.414062 910.699524,1107.712158 
	C922.775085,1108.560669 935.186401,1107.587158 947.187195,1105.739868 
	C960.007812,1103.766235 971.768005,1098.178955 981.379150,1089.067749 
	C996.236633,1074.983154 1001.453308,1056.537842 1001.770081,1037.147339 
	C1002.496521,992.677979 1002.001831,948.188660 1001.991882,903.707397 
	C1001.991577,902.259766 1001.871643,900.812134 1001.804871,899.306030 
	C985.074097,899.306030 968.686157,899.306030 951.744385,899.306030 
	C951.744385,903.916199 951.744385,908.232361 951.744385,911.265381 
	C946.147339,907.349609 940.833313,902.101379 934.442017,899.466125 
	C919.266174,893.208801 903.522949,893.600220 887.869934,898.552307 
	C874.960754,902.636292 864.497009,910.054993 855.999451,921.495605 
M688.984070,1032.503906 
	C710.721985,1048.949097 752.414185,1048.030273 769.161865,1024.999512 
	C769.161865,1030.071167 769.161865,1034.432373 769.161865,1038.612671 
	C786.082520,1038.612671 802.472351,1038.612671 818.762146,1038.612671 
	C818.762146,963.631531 818.762146,889.038025 818.762146,814.280579 
	C802.135010,814.280579 785.746704,814.280579 768.812622,814.280579 
	C768.812622,846.535339 768.812622,878.513611 768.812622,911.146667 
	C751.946960,895.871155 732.527893,892.468933 711.835266,896.258484 
	C690.312988,900.199951 675.379150,913.729004 665.258057,932.543518 
	C656.546875,948.737000 654.916748,966.320923 658.096252,984.174255 
	C661.646606,1004.109802 671.400330,1020.462769 688.984070,1032.503906 
M1247.008667,914.464539 
	C1247.008667,881.053650 1247.008667,847.642822 1247.008667,814.383179 
	C1229.924072,814.383179 1213.535156,814.383179 1197.225830,814.383179 
	C1197.225830,889.354797 1197.225830,963.943054 1197.225830,1038.733398 
	C1213.839111,1038.733398 1230.226196,1038.733398 1247.000000,1038.733398 
	C1247.000000,1016.846863 1246.941528,995.224609 1247.045654,973.603210 
	C1247.068481,968.845520 1247.408569,964.055359 1248.050171,959.341064 
	C1249.954346,945.351013 1255.784302,938.488342 1269.131104,935.524414 
	C1277.148560,933.744019 1287.482422,936.773193 1290.431641,946.089539 
	C1292.232178,951.777344 1293.743896,957.824585 1293.842407,963.736084 
	C1294.228149,986.888245 1294.000000,1010.050659 1294.000000,1033.209229 
	C1294.000000,1034.994385 1294.000000,1036.779419 1294.000000,1038.720459 
	C1310.865356,1038.720459 1327.252441,1038.720459 1344.000000,1038.720459 
	C1344.000000,1037.144409 1344.000000,1035.844849 1344.000000,1034.545288 
	C1344.000000,1006.555054 1344.115234,978.564026 1343.908447,950.575317 
	C1343.863892,944.557373 1343.341064,938.370972 1341.841675,932.571533 
	C1338.704834,920.437073 1332.997314,909.611267 1322.022949,902.597107 
	C1310.403198,895.170288 1297.228027,893.848877 1284.075928,895.278259 
	C1273.380127,896.440857 1263.062256,899.864502 1255.198608,908.202576 
	C1252.755615,910.792786 1249.810303,912.909363 1247.008667,914.464539 
M1525.948975,934.728149 
	C1523.431885,931.116150 1521.257690,927.196716 1518.340576,923.943359 
	C1502.373291,906.134460 1481.836914,897.258850 1458.450439,895.156189 
	C1444.489868,893.901001 1430.573730,895.468323 1417.113892,900.007507 
	C1401.486328,905.277771 1388.094849,913.925293 1378.092285,927.019897 
	C1365.493042,943.514099 1363.521973,962.817932 1366.166992,982.557861 
	C1369.241333,1005.499939 1382.424805,1021.577148 1402.648560,1032.273926 
	C1420.177246,1041.545410 1438.631226,1044.898071 1458.463379,1043.189575 
	C1474.476807,1041.809937 1489.186523,1037.302856 1502.532837,1028.694214 
	C1516.266357,1019.835693 1527.032349,1008.078430 1530.451416,991.659180 
	C1532.444824,982.086792 1532.618408,972.064148 1532.886719,962.224304 
	C1533.143921,952.796143 1530.082642,943.958313 1525.948975,934.728149 
M1086.099121,1004.596375 
	C1076.155640,1000.262573 1071.035278,987.072937 1072.733276,977.783691 
	C1107.036621,977.783691 1141.433472,977.783691 1176.734741,977.783691 
	C1175.432861,967.620361 1174.944336,957.884766 1172.837402,948.512878 
	C1167.413818,924.388733 1152.928345,907.288635 1129.458252,899.464539 
	C1111.480713,893.471313 1092.644775,892.902100 1074.183350,898.118408 
	C1050.526367,904.802795 1033.358765,919.043701 1025.590454,942.967529 
	C1020.933228,957.309998 1020.749817,972.176575 1023.177002,986.900635 
	C1025.191895,999.123779 1030.057251,1010.329468 1038.910645,1019.391602 
	C1055.821289,1036.701294 1077.216797,1043.106812 1100.587524,1043.883057 
	C1113.404053,1044.308838 1125.946655,1041.806274 1137.895386,1036.950562 
	C1156.935913,1029.212891 1169.671387,1016.029297 1173.875610,995.002014 
	C1158.188354,995.002014 1142.870117,994.956604 1127.553467,995.096680 
	C1126.446777,995.106750 1125.303223,996.403992 1124.260986,997.211304 
	C1120.490845,1000.131470 1117.144531,1003.951050 1112.927856,1005.868530 
	C1104.304688,1009.789917 1095.393188,1008.543213 1086.099121,1004.596375 
z"/>
<path fill="#39B54A" opacity="1.000000" stroke="none" 
	d="
M214.000000,990.000000 
	C214.000000,937.866333 214.000000,886.232727 214.000000,834.299866 
	C232.042542,834.299866 249.766068,834.299866 267.819275,834.299866 
	C267.819275,860.347717 267.819275,886.287781 267.819275,912.613342 
	C293.199585,912.613342 318.256989,912.613342 343.821075,912.613342 
	C343.821075,886.711182 343.821075,860.651123 343.821075,834.297363 
	C362.047607,834.297363 379.771118,834.297363 397.747986,834.297363 
	C397.747986,902.351807 397.747986,970.287720 397.747986,1038.611938 
	C380.137970,1038.611938 362.412842,1038.611938 344.180420,1038.611938 
	C344.180420,1011.378784 344.180420,983.985901 344.180420,956.298157 
	C318.620636,956.298157 293.564301,956.298157 268.178833,956.298157 
	C268.178833,983.683044 268.178833,1010.956299 268.178833,1038.614258 
	C250.133270,1038.614258 232.408203,1038.614258 214.000000,1038.614258 
	C214.000000,1022.679688 214.000000,1006.589844 214.000000,990.000000 
z"/>
<path fill="#39B54A" opacity="1.000000" stroke="none" 
	d="
M465.313568,904.811462 
	C456.003479,894.651550 443.560455,892.479797 429.606415,889.967041 
	C436.171112,885.648438 441.301910,881.984131 446.701996,878.772644 
	C465.922729,867.341919 487.057800,864.194580 508.851776,866.180908 
	C525.371521,867.686523 541.119202,873.085144 555.197205,881.870605 
	C568.015625,889.870178 581.372437,895.425903 596.037292,899.410706 
	C619.251282,905.718628 633.267700,922.401184 640.017151,945.348328 
	C642.563904,954.007080 643.837036,967.837036 642.485229,978.020508 
	C608.483582,978.020508 574.412170,978.020508 540.396667,978.020508 
	C538.720642,994.183960 550.729492,1007.531921 566.595093,1008.047668 
	C577.250183,1008.393982 586.402161,1006.024536 592.408264,996.271851 
	C592.916443,995.446594 594.696716,995.059448 595.889099,995.053162 
	C611.049255,994.973328 626.209961,995.000610 641.561646,995.000610 
	C637.512878,1015.745605 625.169067,1029.228638 606.147949,1036.901855 
	C593.737915,1041.908081 580.694885,1044.471802 567.345825,1043.896851 
	C546.334595,1042.991699 527.107605,1037.122681 510.500122,1023.258301 
	C499.789795,1014.317078 486.903564,1010.095520 472.765503,1008.795288 
	C460.787109,1007.693726 449.284515,1008.707336 437.887787,1012.021057 
	C434.379608,1013.041138 431.063568,1014.722107 427.573639,1016.135193 
	C426.340576,994.200867 438.732513,973.489075 466.827698,965.264465 
	C462.822235,957.682922 442.649689,952.277588 421.700317,949.521362 
	C424.393524,938.492004 429.743591,929.378845 438.875122,922.682800 
	C448.031342,915.968567 458.610107,914.394958 470.628510,915.067993 
	C468.723053,911.289551 467.153015,908.176270 465.313568,904.811462 
M567.500000,949.000000 
	C576.931519,949.000000 586.363037,949.000000 595.796692,949.000000 
	C595.581909,939.116150 583.631470,928.680237 572.317444,928.001587 
	C556.194275,927.034302 543.200867,935.599487 541.164978,949.000000 
	C549.655334,949.000000 558.077698,949.000000 567.500000,949.000000 
z"/>
<path fill="#39B54A" opacity="1.000000" stroke="none" 
	d="
M1684.209839,1091.291016 
	C1672.160278,1100.633789 1658.728027,1105.240845 1644.009521,1107.096313 
	C1620.748169,1110.029053 1598.558838,1107.234375 1577.839233,1095.920776 
	C1563.630859,1088.162476 1552.080322,1077.923218 1548.569702,1061.085327 
	C1548.137695,1059.013672 1548.068726,1056.866211 1547.787476,1054.361572 
	C1549.374268,1054.221924 1550.635620,1054.016235 1551.897095,1054.014404 
	C1567.888306,1053.992554 1583.880005,1053.952271 1599.870239,1054.078979 
	C1601.359619,1054.090698 1603.739258,1054.826782 1604.181885,1055.871826 
	C1607.478149,1063.654541 1614.238281,1066.666992 1621.581299,1067.610107 
	C1631.644043,1068.902832 1642.509399,1068.953735 1649.126953,1059.875366 
	C1653.229736,1054.247070 1654.977295,1046.666748 1656.820435,1039.708008 
	C1658.088989,1034.918213 1657.708862,1029.691895 1658.131470,1023.731201 
	C1649.992065,1030.886108 1642.151733,1036.885376 1632.249756,1039.341797 
	C1610.483765,1044.741333 1590.058838,1042.222046 1571.931152,1028.339355 
	C1556.377563,1016.427979 1548.139282,1000.516541 1545.827026,980.902161 
	C1543.223389,958.814941 1548.074463,938.963257 1561.360229,921.410461 
	C1572.463501,906.741028 1587.306274,898.246277 1605.903687,895.823486 
	C1619.012207,894.115845 1631.458862,895.229614 1643.097534,901.195984 
	C1648.396606,903.912476 1652.786499,908.402344 1657.809814,912.257385 
	C1657.809814,908.224976 1657.809814,903.881592 1657.809814,899.278442 
	C1674.742065,899.278442 1691.128052,899.278442 1708.000000,899.278442 
	C1708.000000,900.878723 1708.000000,902.329102 1708.000000,903.779419 
	C1708.000000,945.922974 1708.370361,988.071350 1707.825073,1030.207764 
	C1707.593994,1048.059082 1704.702881,1065.730103 1693.936523,1080.869629 
	C1691.275757,1084.611206 1687.643799,1087.661987 1684.209839,1091.291016 
M1602.044800,986.241943 
	C1606.007324,989.643677 1609.436646,994.356323 1614.023804,996.222168 
	C1634.901611,1004.714111 1659.937134,994.686584 1658.998169,966.963562 
	C1658.615479,955.665161 1653.737183,946.467712 1643.942505,941.195679 
	C1633.546753,935.600098 1622.240845,935.835083 1611.869507,941.790222 
	C1598.015747,949.744995 1591.624390,970.207886 1602.044800,986.241943 
z"/>
<path fill="#39B54A" opacity="1.000000" stroke="none" 
	d="
M856.252930,921.235718 
	C864.497009,910.054993 874.960754,902.636292 887.869934,898.552307 
	C903.522949,893.600220 919.266174,893.208801 934.442017,899.466125 
	C940.833313,902.101379 946.147339,907.349609 951.744385,911.265381 
	C951.744385,908.232361 951.744385,903.916199 951.744385,899.306030 
	C968.686157,899.306030 985.074097,899.306030 1001.804871,899.306030 
	C1001.871643,900.812134 1001.991577,902.259766 1001.991882,903.707397 
	C1002.001831,948.188660 1002.496521,992.677979 1001.770081,1037.147339 
	C1001.453308,1056.537842 996.236633,1074.983154 981.379150,1089.067749 
	C971.768005,1098.178955 960.007812,1103.766235 947.187195,1105.739868 
	C935.186401,1107.587158 922.775085,1108.560669 910.699524,1107.712158 
	C892.226074,1106.414062 875.484436,1099.388672 860.512207,1088.138184 
	C849.155457,1079.604370 843.880981,1068.118530 841.808777,1054.000000 
	C852.845825,1054.000000 863.473816,1054.000000 874.101746,1054.000000 
	C880.932190,1054.000000 887.766663,1053.876953 894.590027,1054.096558 
	C896.085144,1054.144653 898.298645,1055.024902 898.892212,1056.182739 
	C902.746765,1063.702515 909.486572,1066.811523 917.130493,1067.829468 
	C925.212585,1068.905640 933.200012,1067.785767 940.278381,1063.186035 
	C947.145020,1058.724121 949.231140,1051.316162 950.750183,1044.096924 
	C952.078918,1037.781738 951.876221,1031.144409 951.825989,1024.423218 
	C944.387024,1032.034424 935.887268,1037.552856 925.887512,1039.854736 
	C897.733398,1046.335571 867.944031,1038.064575 850.759521,1011.259033 
	C843.912109,1000.578186 840.539001,988.907166 839.944885,976.244324 
	C839.207642,960.532715 841.430359,945.501831 849.157043,931.616455 
	C851.129761,928.071411 853.702454,924.860229 856.252930,921.235718 
M936.903870,940.407776 
	C929.391418,936.858887 921.540466,936.864685 913.731995,938.788269 
	C900.362000,942.081909 890.921448,954.725586 891.874512,970.148132 
	C892.555664,981.170715 896.649780,989.787964 906.434326,995.008118 
	C917.219238,1000.761963 928.681091,1001.292725 939.169617,995.030396 
	C950.932129,988.007385 955.272095,976.942627 953.086365,963.192993 
	C951.477966,953.074951 946.486511,945.684265 936.903870,940.407776 
z"/>
<path fill="#39B54A" opacity="1.000000" stroke="none" 
	d="
M688.685425,1032.287109 
	C671.400330,1020.462769 661.646606,1004.109802 658.096252,984.174255 
	C654.916748,966.320923 656.546875,948.737000 665.258057,932.543518 
	C675.379150,913.729004 690.312988,900.199951 711.835266,896.258484 
	C732.527893,892.468933 751.946960,895.871155 768.812622,911.146667 
	C768.812622,878.513611 768.812622,846.535339 768.812622,814.280579 
	C785.746704,814.280579 802.135010,814.280579 818.762146,814.280579 
	C818.762146,889.038025 818.762146,963.631531 818.762146,1038.612671 
	C802.472351,1038.612671 786.082520,1038.612671 769.161865,1038.612671 
	C769.161865,1034.432373 769.161865,1030.071167 769.161865,1024.999512 
	C752.414185,1048.030273 710.721985,1048.949097 688.685425,1032.287109 
M709.000000,968.589844 
	C709.265991,971.841370 709.069153,975.213257 709.878174,978.323486 
	C713.366272,991.732605 724.394409,1000.643494 740.702393,1000.111755 
	C751.544983,999.758179 760.201965,995.906067 765.975708,986.758484 
	C772.846619,975.872559 772.630188,964.275452 766.544434,953.356567 
	C760.496216,942.505249 750.551636,938.727051 738.017395,938.762695 
	C722.224609,938.807678 708.596985,953.362061 709.000000,968.589844 
z"/>
<path fill="#39B54A" opacity="1.000000" stroke="none" 
	d="
M1247.051880,914.853638 
	C1249.810303,912.909363 1252.755615,910.792786 1255.198608,908.202576 
	C1263.062256,899.864502 1273.380127,896.440857 1284.075928,895.278259 
	C1297.228027,893.848877 1310.403198,895.170288 1322.022949,902.597107 
	C1332.997314,909.611267 1338.704834,920.437073 1341.841675,932.571533 
	C1343.341064,938.370972 1343.863892,944.557373 1343.908447,950.575317 
	C1344.115234,978.564026 1344.000000,1006.555054 1344.000000,1034.545288 
	C1344.000000,1035.844849 1344.000000,1037.144409 1344.000000,1038.720459 
	C1327.252441,1038.720459 1310.865356,1038.720459 1294.000000,1038.720459 
	C1294.000000,1036.779419 1294.000000,1034.994385 1294.000000,1033.209229 
	C1294.000000,1010.050659 1294.228149,986.888245 1293.842407,963.736084 
	C1293.743896,957.824585 1292.232178,951.777344 1290.431641,946.089539 
	C1287.482422,936.773193 1277.148560,933.744019 1269.131104,935.524414 
	C1255.784302,938.488342 1249.954346,945.351013 1248.050171,959.341064 
	C1247.408569,964.055359 1247.068481,968.845520 1247.045654,973.603210 
	C1246.941528,995.224609 1247.000000,1016.846863 1247.000000,1038.733398 
	C1230.226196,1038.733398 1213.839111,1038.733398 1197.225830,1038.733398 
	C1197.225830,963.943054 1197.225830,889.354797 1197.225830,814.383179 
	C1213.535156,814.383179 1229.924072,814.383179 1247.008667,814.383179 
	C1247.008667,847.642822 1247.008667,881.053650 1247.051880,914.853638 
z"/>
<path fill="#39B54A" opacity="1.000000" stroke="none" 
	d="
M1526.018066,935.103760 
	C1530.082642,943.958313 1533.143921,952.796143 1532.886719,962.224304 
	C1532.618408,972.064148 1532.444824,982.086792 1530.451416,991.659180 
	C1527.032349,1008.078430 1516.266357,1019.835693 1502.532837,1028.694214 
	C1489.186523,1037.302856 1474.476807,1041.809937 1458.463379,1043.189575 
	C1438.631226,1044.898071 1420.177246,1041.545410 1402.648560,1032.273926 
	C1382.424805,1021.577148 1369.241333,1005.499939 1366.166992,982.557861 
	C1363.521973,962.817932 1365.493042,943.514099 1378.092285,927.019897 
	C1388.094849,913.925293 1401.486328,905.277771 1417.113892,900.007507 
	C1430.573730,895.468323 1444.489868,893.901001 1458.450439,895.156189 
	C1481.836914,897.258850 1502.373291,906.134460 1518.340576,923.943359 
	C1521.257690,927.196716 1523.431885,931.116150 1526.018066,935.103760 
M1455.110107,939.000427 
	C1453.279541,939.000244 1451.441284,939.109375 1449.619385,938.983459 
	C1427.669189,937.466431 1413.326782,959.973816 1419.857788,979.824463 
	C1423.262817,990.174072 1433.540039,1000.494263 1450.476562,1000.189453 
	C1473.518311,999.774841 1484.133667,979.741333 1479.457642,961.169739 
	C1476.467773,949.294800 1468.566162,941.381226 1455.110107,939.000427 
z"/>
<path fill="#39B54A" opacity="1.000000" stroke="none" 
	d="
M1086.442383,1004.778137 
	C1095.393188,1008.543213 1104.304688,1009.789917 1112.927856,1005.868530 
	C1117.144531,1003.951050 1120.490845,1000.131470 1124.260986,997.211304 
	C1125.303223,996.403992 1126.446777,995.106750 1127.553467,995.096680 
	C1142.870117,994.956604 1158.188354,995.002014 1173.875610,995.002014 
	C1169.671387,1016.029297 1156.935913,1029.212891 1137.895386,1036.950562 
	C1125.946655,1041.806274 1113.404053,1044.308838 1100.587524,1043.883057 
	C1077.216797,1043.106812 1055.821289,1036.701294 1038.910645,1019.391602 
	C1030.057251,1010.329468 1025.191895,999.123779 1023.177002,986.900635 
	C1020.749817,972.176575 1020.933228,957.309998 1025.590454,942.967529 
	C1033.358765,919.043701 1050.526367,904.802795 1074.183350,898.118408 
	C1092.644775,892.902100 1111.480713,893.471313 1129.458252,899.464539 
	C1152.928345,907.288635 1167.413818,924.388733 1172.837402,948.512878 
	C1174.944336,957.884766 1175.432861,967.620361 1176.734741,977.783691 
	C1141.433472,977.783691 1107.036621,977.783691 1072.733276,977.783691 
	C1071.035278,987.072937 1076.155640,1000.262573 1086.442383,1004.778137 
M1088.505005,949.000000 
	C1101.787354,949.000000 1115.069702,949.000000 1128.366943,949.000000 
	C1126.988037,936.562683 1112.421997,927.033508 1099.405518,927.945007 
	C1086.292603,928.863220 1073.868896,938.182739 1073.578125,949.000000 
	C1078.224121,949.000000 1082.865845,949.000000 1088.505005,949.000000 
z"/>
<path fill="#FFFFFF" opacity="1.000000" stroke="none" 
	d="
M567.000000,949.000000 
	C558.077698,949.000000 549.655334,949.000000 541.164978,949.000000 
	C543.200867,935.599487 556.194275,927.034302 572.317444,928.001587 
	C583.631470,928.680237 595.581909,939.116150 595.796692,949.000000 
	C586.363037,949.000000 576.931519,949.000000 567.000000,949.000000 
z"/>
<path fill="#FFFFFF" opacity="1.000000" stroke="none" 
	d="
M1601.978516,985.875244 
	C1591.624390,970.207886 1598.015747,949.744995 1611.869507,941.790222 
	C1622.240845,935.835083 1633.546753,935.600098 1643.942505,941.195679 
	C1653.737183,946.467712 1658.615479,955.665161 1658.998169,966.963562 
	C1659.937134,994.686584 1634.901611,1004.714111 1614.023804,996.222168 
	C1609.436646,994.356323 1606.007324,989.643677 1601.978516,985.875244 
z"/>
<path fill="#FFFFFF" opacity="1.000000" stroke="none" 
	d="
M937.201965,940.656616 
	C946.486511,945.684265 951.477966,953.074951 953.086365,963.192993 
	C955.272095,976.942627 950.932129,988.007385 939.169617,995.030396 
	C928.681091,1001.292725 917.219238,1000.761963 906.434326,995.008118 
	C896.649780,989.787964 892.555664,981.170715 891.874512,970.148132 
	C890.921448,954.725586 900.362000,942.081909 913.731995,938.788269 
	C921.540466,936.864685 929.391418,936.858887 937.201965,940.656616 
z"/>
<path fill="#FFFFFF" opacity="1.000000" stroke="none" 
	d="
M709.000000,968.121582 
	C708.596985,953.362061 722.224609,938.807678 738.017395,938.762695 
	C750.551636,938.727051 760.496216,942.505249 766.544434,953.356567 
	C772.630188,964.275452 772.846619,975.872559 765.975708,986.758484 
	C760.201965,995.906067 751.544983,999.758179 740.702393,1000.111755 
	C724.394409,1000.643494 713.366272,991.732605 709.878174,978.323486 
	C709.069153,975.213257 709.265991,971.841370 709.000000,968.121582 
z"/>
<path fill="#FFFFFF" opacity="1.000000" stroke="none" 
	d="
M1455.561523,939.002686 
	C1468.566162,941.381226 1476.467773,949.294800 1479.457642,961.169739 
	C1484.133667,979.741333 1473.518311,999.774841 1450.476562,1000.189453 
	C1433.540039,1000.494263 1423.262817,990.174072 1419.857788,979.824463 
	C1413.326782,959.973816 1427.669189,937.466431 1449.619385,938.983459 
	C1451.441284,939.109375 1453.279541,939.000244 1455.561523,939.002686 
z"/>
<path fill="#FFFFFF" opacity="1.000000" stroke="none" 
	d="
M1088.006348,949.000000 
	C1082.865845,949.000000 1078.224121,949.000000 1073.578125,949.000000 
	C1073.868896,938.182739 1086.292603,928.863220 1099.405518,927.945007 
	C1112.421997,927.033508 1126.988037,936.562683 1128.366943,949.000000 
	C1115.069702,949.000000 1101.787354,949.000000 1088.006348,949.000000 
z"/>
</svg>