<?xml version="1.0" standalone="no"?>
<!DOCTYPE svg PUBLIC "-//W3C//DTD SVG 20010904//EN"
 "http://www.w3.org/TR/2001/REC-SVG-20010904/DTD/svg10.dtd">
<svg version="1.0" xmlns="http://www.w3.org/2000/svg"
 width="643.000000pt" height="520.000000pt" viewBox="0 0 643.000000 520.000000"
 preserveAspectRatio="xMidYMid meet">

<g transform="translate(0.000000,520.000000) scale(0.100000,-0.100000)"
fill="#000000" stroke="none">
<path d="M1945 5149 c-449 -42 -881 -187 -1286 -431 -129 -78 -341 -227 -346
-244 -2 -6 34 -15 89 -23 109 -15 322 -68 428 -106 150 -55 322 -152 412 -233
96 -86 177 -244 178 -342 l0 -45 -163 0 c-178 -1 -266 -14 -419 -65 -295 -99
-528 -303 -682 -600 -57 -109 -131 -298 -121 -308 3 -3 51 -11 108 -19 252
-32 562 -100 751 -164 124 -42 278 -118 351 -171 71 -52 134 -126 113 -132 -7
-2 -53 -16 -103 -31 -419 -126 -767 -413 -929 -765 -46 -101 -91 -247 -110
-355 -20 -112 -33 -299 -20 -294 5 2 47 23 94 45 246 120 543 176 930 176 431
-1 742 -56 998 -177 141 -67 243 -133 397 -256 300 -240 511 -356 829 -458
283 -90 523 -125 876 -125 214 0 278 4 399 23 282 43 526 119 776 241 203 99
309 173 451 315 137 136 225 261 303 426 49 105 121 312 121 349 0 20 -5 20
-683 20 l-684 0 -31 -49 c-82 -126 -199 -220 -337 -270 -114 -41 -222 -55
-384 -48 -412 17 -675 203 -774 547 -25 86 -47 229 -47 308 l0 42 1501 0 1502
0 -6 223 c-3 122 -13 273 -22 336 -90 651 -382 1148 -860 1467 -152 101 -281
159 -560 254 -458 156 -645 238 -1210 533 -397 207 -805 338 -1220 393 -146
19 -474 26 -610 13z m2600 -1809 c216 -70 403 -218 490 -391 27 -52 65 -161
65 -184 0 -13 -90 -15 -820 -15 -789 0 -820 1 -820 18 0 25 38 138 62 187 101
199 296 340 548 396 123 27 375 21 475 -11z"/>
</g>
</svg>
