<?xml version="1.0" standalone="no"?>
<!DOCTYPE svg PUBLIC "-//W3C//DTD SVG 20010904//EN"
 "http://www.w3.org/TR/2001/REC-SVG-20010904/DTD/svg10.dtd">
<svg version="1.0" xmlns="http://www.w3.org/2000/svg"
 width="1497.000000pt" height="298.000000pt" viewBox="0 0 1497.000000 298.000000"
 preserveAspectRatio="xMidYMid meet">

<g transform="translate(0.000000,298.000000) scale(0.100000,-0.100000)"
fill="#000000" stroke="none">
<path d="M5570 2459 l0 -490 -47 39 c-196 163 -526 171 -753 17 -186 -126
-304 -345 -317 -585 -12 -236 59 -422 227 -590 134 -134 270 -190 464 -190
164 0 290 44 376 132 l49 50 3 -69 3 -68 248 -3 247 -2 0 1125 0 1125 -250 0
-250 0 0 -491z m-142 -785 c207 -100 217 -425 18 -548 -43 -27 -59 -31 -148
-34 -158 -7 -241 36 -300 155 -29 60 -33 77 -33 148 1 94 22 149 81 214 66 74
149 104 264 95 41 -3 84 -14 118 -30z"/>
<path d="M9852 1828 l3 -1123 247 -3 247 -2 3 412 c3 407 3 414 27 472 28 71
82 127 137 144 80 24 188 8 234 -33 11 -10 30 -43 42 -74 22 -54 23 -69 28
-486 l5 -430 248 -3 248 -2 -4 502 c-3 424 -6 511 -19 556 -60 195 -165 309
-333 358 -88 26 -259 23 -346 -5 -81 -26 -174 -86 -229 -148 l-40 -46 0 517 0
516 -250 0 -250 0 2 -1122z"/>
<path d="M22 1723 l3 -1018 268 -3 267 -2 0 420 0 420 380 0 380 0 0 -420 0
-420 265 0 265 0 0 1020 0 1020 -265 0 -265 0 0 -390 0 -390 -380 0 -380 0 0
390 0 390 -270 0 -270 0 2 -1017z"/>
<path d="M2650 2411 c-148 -32 -328 -115 -424 -194 l-30 -24 80 -18 c145 -32
253 -95 288 -169 27 -57 22 -66 -31 -66 -62 0 -162 -24 -215 -51 -69 -35 -145
-120 -184 -204 -19 -42 -32 -80 -29 -85 3 -6 21 -10 38 -10 53 0 243 -47 306
-75 33 -15 71 -39 85 -54 l27 -28 -43 -12 c-169 -50 -312 -197 -346 -356 -13
-61 -23 -135 -19 -135 2 0 22 9 45 20 86 42 159 54 317 54 225 0 332 -35 495
-159 172 -131 339 -185 571 -185 311 0 566 131 663 341 19 41 37 86 40 102 l6
27 -234 0 -235 0 -48 -48 c-29 -29 -64 -52 -89 -60 -50 -14 -165 -16 -214 -2
-105 29 -177 118 -187 231 l-6 59 518 0 518 0 -6 113 c-12 225 -71 371 -207
508 -103 104 -181 146 -348 185 -79 18 -128 36 -169 62 -202 124 -316 177
-473 219 -132 35 -337 41 -460 14z m1056 -629 c68 -35 118 -92 138 -159 l7
-23 -280 0 c-313 0 -299 -4 -261 69 24 49 90 106 144 125 61 23 198 16 252
-12z"/>
<path d="M6910 2133 c-19 -2 -64 -11 -100 -19 -234 -53 -433 -260 -506 -525
-25 -90 -25 -318 0 -409 66 -240 245 -422 473 -481 111 -29 273 -28 368 1 89
28 109 39 191 101 l67 52 -5 -109 c-9 -168 -51 -259 -142 -306 -32 -17 -63
-23 -141 -26 -94 -3 -103 -2 -155 25 -35 18 -64 42 -79 66 l-24 37 -278 0
-277 0 14 -60 c21 -89 59 -157 128 -225 139 -137 370 -230 601 -242 191 -10
380 27 520 101 85 44 203 164 242 246 88 186 93 237 93 1048 l0 682 -250 0
-250 0 0 -70 0 -70 -36 39 c-48 54 -116 95 -197 120 -69 21 -193 33 -257 24z
m339 -444 c59 -25 114 -82 145 -148 16 -36 21 -65 21 -136 0 -78 -4 -97 -28
-147 -57 -116 -147 -163 -301 -156 -141 6 -213 54 -269 176 -29 65 -30 188 0
253 40 90 118 155 210 179 57 14 164 4 222 -21z"/>
<path d="M8745 2129 c-244 -31 -453 -165 -559 -359 -14 -25 -37 -86 -52 -135
-24 -79 -27 -107 -28 -235 0 -166 14 -238 71 -360 48 -101 164 -217 278 -277
131 -68 236 -95 403 -100 150 -6 217 2 332 39 150 48 269 130 342 235 26 39
78 160 78 183 0 6 -88 10 -234 10 l-233 0 -49 -49 c-61 -61 -107 -75 -224 -69
-99 5 -148 26 -203 87 -38 42 -67 120 -67 178 l0 33 516 0 517 0 -6 118 c-6
139 -25 219 -77 327 -106 219 -294 345 -565 375 -102 11 -141 11 -240 -1z
m263 -339 c24 -11 57 -29 73 -41 29 -20 89 -112 89 -136 0 -10 -63 -13 -280
-13 -312 0 -298 -4 -260 69 26 52 94 108 150 126 68 21 176 18 228 -5z"/>
<path d="M12251 2129 c-289 -36 -537 -192 -641 -404 -91 -184 -95 -453 -9
-644 78 -173 260 -316 494 -387 84 -26 102 -28 275 -28 164 -1 194 2 264 22
165 48 299 125 402 233 73 77 104 128 140 234 26 73 28 92 29 230 0 166 -12
230 -65 339 -132 275 -520 452 -889 405z m276 -455 c58 -28 102 -77 135 -151
33 -71 31 -199 -2 -268 -33 -68 -96 -128 -155 -148 -62 -22 -196 -22 -257 -1
-64 21 -122 75 -155 142 -25 50 -28 68 -28 147 1 77 5 97 27 140 45 87 114
142 205 165 62 15 171 3 230 -26z"/>
<path d="M13942 2129 c-321 -41 -559 -301 -602 -658 -21 -170 22 -363 111
-495 133 -199 323 -299 569 -298 165 1 277 41 390 140 l53 46 -6 -99 c-7 -109
-34 -212 -69 -265 -13 -19 -45 -45 -73 -59 -44 -23 -61 -26 -161 -26 -105 0
-113 1 -159 30 -27 17 -55 44 -64 62 l-16 33 -277 0 c-231 0 -278 -2 -278 -14
0 -37 45 -151 81 -205 75 -112 257 -223 454 -278 92 -25 114 -27 270 -27 150
1 181 4 267 27 208 55 350 161 427 318 91 186 101 292 101 1117 l0 612 -250 0
-250 0 0 -72 0 -71 -60 57 c-70 67 -143 103 -248 122 -85 15 -117 15 -210 3z
m363 -439 c60 -29 130 -108 150 -171 22 -66 17 -208 -9 -257 -26 -51 -85 -111
-130 -135 -57 -29 -204 -36 -274 -13 -114 38 -192 152 -192 281 0 88 12 131
53 191 39 58 98 102 164 120 67 19 182 11 238 -16z"/>
</g>
</svg>
