<svg version="1.1" id="Layer_1" xmlns="http://www.w3.org/2000/svg" xmlns:xlink="http://www.w3.org/1999/xlink" x="0px" y="0px"
	 width="100%" viewBox="0 0 558 447" enable-background="new 0 0 558 447" xml:space="preserve">
<path fill="#3BB54B" opacity="1.000000" stroke="none" 
	d="
M202.000000,1.000000 
	C206.024551,1.000000 210.049088,1.000000 214.355209,1.338626 
	C215.219589,2.057568 215.802399,2.437885 216.385208,2.818202 
	C216.590149,2.212136 216.795074,1.606068 217.000000,1.000001 
	C217.444443,1.000000 217.888901,1.000000 218.569214,1.419795 
	C219.489594,2.189966 220.157806,2.808656 220.861023,2.851380 
	C237.346634,3.852957 253.129944,8.304960 268.761322,13.109069 
	C280.305298,16.656971 291.826691,20.600130 302.808563,25.579388 
	C319.049835,32.943306 334.783936,41.422138 350.773285,49.346939 
	C358.559265,53.205894 366.311310,57.173286 374.296143,60.582344 
	C388.365265,66.589058 402.545868,72.345520 416.780975,77.949821 
	C434.932678,85.096077 454.407501,88.778984 471.368500,99.067276 
	C486.543213,108.272034 500.927277,118.244385 512.739563,131.865341 
	C523.774963,144.590378 533.039734,158.237640 540.326477,173.392746 
	C548.251709,189.875671 553.440552,207.099670 556.105896,225.163589 
	C556.503662,227.859375 558.007690,230.391922 559.000000,233.000000 
	C559.000000,249.354233 559.000000,265.708466 558.548584,282.391541 
	C529.615662,282.695129 501.134094,282.654205 472.652527,282.647980 
	C416.187683,282.635620 359.722839,282.626312 303.258148,282.715820 
	C301.479553,282.718658 299.702728,283.821960 298.003448,284.500610 
	C298.081818,284.589020 297.925507,284.766205 297.642303,285.092194 
	C297.476135,288.839355 297.268280,292.311371 297.793640,295.668640 
	C298.428741,299.727081 299.684784,303.688324 300.814941,308.081940 
	C301.314819,309.551849 301.734100,310.615265 302.019623,311.713501 
	C307.025818,330.970062 317.666138,345.826080 336.399750,353.544556 
	C343.986877,356.670532 352.288025,358.063660 360.613647,360.395935 
	C369.862701,360.447815 378.762451,360.349152 388.067230,360.125122 
	C393.954224,358.529663 399.642303,357.576202 404.877258,355.487213 
	C417.741821,350.353668 426.161896,340.100250 434.210938,329.132751 
	C474.303955,329.223755 513.916382,329.223755 553.562256,329.223755 
	C553.365723,332.306030 553.213745,334.689423 553.033752,337.036591 
	C553.005737,337.000336 553.078125,337.056671 552.803833,336.893677 
	C552.644531,337.199127 552.759521,337.667542 552.794128,338.492950 
	C548.382996,349.159424 544.827881,359.886719 539.550049,369.686218 
	C530.312134,386.838470 517.408325,401.045135 501.411072,412.369659 
	C483.397736,425.121216 463.444061,433.748108 442.423035,439.924713 
	C433.456635,442.559357 424.134094,443.973877 415.000977,446.063416 
	C414.226837,446.240570 413.662079,447.332886 413.000000,448.000000 
	C387.312439,448.000000 361.624878,448.000000 335.546844,447.584717 
	C332.991272,446.764008 330.787720,446.501160 328.667297,445.929810 
	C315.352631,442.342316 301.714294,439.600983 288.852142,434.790649 
	C276.443939,430.150024 264.194397,424.369598 253.036102,417.266266 
	C235.366028,406.017456 218.920853,392.861603 201.462830,381.256653 
	C189.587982,373.363098 175.949387,369.059113 162.032684,366.113739 
	C153.276413,364.260559 144.371567,363.109528 135.312256,361.429077 
	C116.520302,358.300079 97.894676,358.816681 79.259918,360.392609 
	C78.575592,360.450500 77.952225,361.229126 76.862335,361.808960 
	C55.016388,364.037933 34.646790,369.672516 15.454830,380.026611 
	C15.033803,378.102295 14.657922,376.384308 14.577217,374.503418 
	C15.140595,372.763580 15.486889,371.195343 15.663785,369.608246 
	C16.534285,361.798370 17.359833,353.983490 18.103964,345.764709 
	C20.608603,337.684265 22.394083,329.602631 25.975355,322.415863 
	C34.525520,305.257690 45.766685,290.084717 61.678440,278.775513 
	C73.860558,270.117126 86.572823,262.563141 100.865303,257.901031 
	C105.903084,256.257721 110.887932,254.452118 116.993179,252.341675 
	C114.184883,249.277313 112.351929,245.971451 109.550148,244.451736 
	C98.870819,238.659134 88.337967,232.012405 76.897911,228.341446 
	C59.140938,222.643478 40.686527,219.118988 22.384464,214.473633 
	C21.138472,214.137543 20.035799,214.000900 18.820087,213.960632 
	C18.707045,214.057007 18.440384,213.925995 17.941769,213.738098 
	C17.116619,213.690063 16.790085,213.829926 16.457417,213.992340 
	C16.451283,214.014923 16.420637,213.979568 16.294395,213.594055 
	C12.319234,212.573212 8.439553,212.075653 4.638246,211.227051 
	C3.325213,210.933914 2.207135,209.767502 1.000002,209.000000 
	C1.000000,207.611115 1.000000,206.222214 1.373477,204.542542 
	C6.269863,194.884613 10.229932,185.190521 15.439814,176.222488 
	C24.604441,160.446945 37.402267,147.982956 53.478420,139.258820 
	C65.979019,132.475052 79.039864,127.217979 93.651184,126.875038 
	C100.757965,126.708237 107.846237,125.753113 115.087677,125.483597 
	C117.603043,126.126366 119.973625,126.440407 123.023285,126.844406 
	C122.376518,118.511490 121.502014,111.250099 116.093887,104.957169 
	C111.866562,99.891724 108.411751,94.432861 103.676155,90.526756 
	C89.846191,79.119240 73.080956,73.462410 56.257320,68.237289 
	C51.154305,66.652382 45.737976,66.080551 40.469624,65.022446 
	C35.309937,63.986168 30.155943,62.921551 24.999451,61.869373 
	C24.602301,61.201088 24.205151,60.532799 23.808001,59.864510 
	C25.378057,58.934494 26.995054,58.074699 28.509937,57.062138 
	C34.619064,52.978718 40.648262,48.774250 46.794380,44.747898 
	C72.183693,28.115175 99.431366,15.578533 128.901917,8.144722 
	C135.114685,6.577582 141.577454,6.001588 148.354721,5.009470 
	C151.227234,4.603157 153.666687,4.136850 156.113556,3.713388 
	C161.407028,2.797284 166.704285,1.903131 172.000000,1.000000 
	C174.700012,1.000000 177.400024,1.000000 180.837555,1.303288 
	C186.742569,1.702653 191.910049,1.798729 197.457825,1.931906 
	C199.225418,1.646005 200.612701,1.323003 202.000000,1.000000 
M441.165466,206.629089 
	C439.448639,195.726791 433.715149,186.692139 426.344452,179.119278 
	C415.803284,168.289047 402.447876,161.926193 387.325958,158.130356 
	C382.474457,157.475677 377.608337,156.211716 372.775360,156.327866 
	C367.313904,156.459091 361.882233,157.830200 355.615784,158.953217 
	C349.498779,160.966614 343.255127,162.663589 337.288208,165.051941 
	C318.411591,172.607574 306.633636,186.443970 301.158600,206.342178 
	C300.625397,207.723907 300.092194,209.105637 299.449066,210.772263 
	C347.697021,210.772263 395.231537,210.772263 443.557251,210.772263 
	C442.831085,209.152023 442.340027,208.056396 441.165466,206.629089 
z"/>
<path fill="#000000" opacity="1.000000" stroke="none" 
	d="
M22.527782,214.673096 
	C40.686527,219.118988 59.140938,222.643478 76.897911,228.341446 
	C88.337967,232.012405 98.870819,238.659134 109.550148,244.451736 
	C112.351929,245.971451 114.184883,249.277313 116.993179,252.341675 
	C110.887932,254.452118 105.903084,256.257721 100.865303,257.901031 
	C86.572823,262.563141 73.860558,270.117126 61.678440,278.775513 
	C45.766685,290.084717 34.525520,305.257690 25.975355,322.415863 
	C22.394083,329.602631 20.608603,337.684265 17.930359,346.113800 
	C16.663372,356.134460 15.472704,365.400391 14.282038,374.666321 
	C14.657922,376.384308 15.033803,378.102295 15.454830,380.026611 
	C34.646790,369.672516 55.016388,364.037933 77.279556,361.847504 
	C97.267715,361.713806 116.400543,361.678619 135.533371,361.643463 
	C144.371567,363.109528 153.276413,364.260559 162.032684,366.113739 
	C175.949387,369.059113 189.587982,373.363098 201.462830,381.256653 
	C218.920853,392.861603 235.366028,406.017456 253.036102,417.266266 
	C264.194397,424.369598 276.443939,430.150024 288.852142,434.790649 
	C301.714294,439.600983 315.352631,442.342316 328.667297,445.929810 
	C330.787720,446.501160 332.991272,446.764008 335.078186,447.584717 
	C223.752304,448.000000 112.504593,448.000000 1.000000,448.000000 
	C1.000000,369.979279 1.000000,291.958313 1.453260,213.494339 
	C6.744559,213.360764 11.582598,213.670166 16.420637,213.979568 
	C16.420637,213.979568 16.451283,214.014923 16.697363,214.255508 
	C17.442421,214.306061 17.941401,214.116028 18.440382,213.925995 
	C18.440384,213.925995 18.707045,214.057007 19.153141,213.991119 
	C20.575420,214.174515 21.551601,214.423798 22.527782,214.673096 
z"/>
<path fill="#000000" opacity="1.000000" stroke="none" 
	d="
M559.000000,232.531342 
	C558.007690,230.391922 556.503662,227.859375 556.105896,225.163589 
	C553.440552,207.099670 548.251709,189.875671 540.326477,173.392746 
	C533.039734,158.237640 523.774963,144.590378 512.739563,131.865341 
	C500.927277,118.244385 486.543213,108.272034 471.368500,99.067276 
	C454.407501,88.778984 434.932678,85.096077 416.780975,77.949821 
	C402.545868,72.345520 388.365265,66.589058 374.296143,60.582344 
	C366.311310,57.173286 358.559265,53.205894 350.773285,49.346939 
	C334.783936,41.422138 319.049835,32.943306 302.808563,25.579388 
	C291.826691,20.600130 280.305298,16.656971 268.761322,13.109069 
	C253.129944,8.304960 237.346634,3.852957 220.861023,2.851380 
	C220.157806,2.808656 219.489594,2.189966 218.902527,1.419795 
	C332.246613,1.000000 445.493195,1.000000 559.000000,1.000000 
	C559.000000,78.020699 559.000000,155.041687 559.000000,232.531342 
z"/>
<path fill="#000000" opacity="1.000000" stroke="none" 
	d="
M360.264282,360.245300 
	C352.288025,358.063660 343.986877,356.670532 336.399750,353.544556 
	C317.666138,345.826080 307.025818,330.970062 302.019623,311.713501 
	C301.734100,310.615265 301.314819,309.551849 300.843506,307.693298 
	C299.794617,299.531647 298.860046,292.148926 297.925476,284.766205 
	C297.925507,284.766205 298.081818,284.589020 298.447144,284.310974 
	C385.541656,284.021942 472.270844,284.010956 559.000000,284.000000 
	C559.000000,338.589417 559.000000,393.178864 559.000000,448.000000 
	C510.646027,448.000000 462.291656,448.000000 413.468689,448.000000 
	C413.662079,447.332886 414.226837,446.240570 415.000977,446.063416 
	C424.134094,443.973877 433.456635,442.559357 442.423035,439.924713 
	C463.444061,433.748108 483.397736,425.121216 501.411072,412.369659 
	C517.408325,401.045135 530.312134,386.838470 539.550049,369.686218 
	C544.827881,359.886719 548.382996,349.159424 552.852417,338.223572 
	C553.020081,337.417053 553.049133,337.236877 553.078125,337.056671 
	C553.078125,337.056671 553.005737,337.000336 553.405640,336.874512 
	C554.307678,333.970551 554.809814,331.192444 555.300964,328.474915 
	C554.292480,328.187469 553.982910,328.022034 553.673218,328.021912 
	C514.871216,328.006165 476.069183,327.993469 437.267212,328.042297 
	C436.087860,328.043793 434.909302,328.694000 433.730377,329.041748 
	C426.161896,340.100250 417.741821,350.353668 404.877258,355.487213 
	C399.642303,357.576202 393.954224,358.529663 387.626648,360.089417 
	C377.942078,360.201141 369.103180,360.223206 360.264282,360.245300 
z"/>
<path fill="#000000" opacity="1.000000" stroke="none" 
	d="
M147.925034,4.968904 
	C141.577454,6.001588 135.114685,6.577582 128.901917,8.144722 
	C99.431366,15.578533 72.183693,28.115175 46.794380,44.747898 
	C40.648262,48.774250 34.619064,52.978718 28.509937,57.062138 
	C26.995054,58.074699 25.378057,58.934494 23.808001,59.864510 
	C24.205151,60.532799 24.602301,61.201088 24.999451,61.869373 
	C30.155943,62.921551 35.309937,63.986168 40.469624,65.022446 
	C45.737976,66.080551 51.154305,66.652382 56.257320,68.237289 
	C73.080956,73.462410 89.846191,79.119240 103.676155,90.526756 
	C108.411751,94.432861 111.866562,99.891724 116.307861,105.224106 
	C119.992355,111.742279 121.078430,118.102959 120.889397,124.825096 
	C118.575073,124.953438 116.758980,125.054146 114.942894,125.154854 
	C107.846237,125.753113 100.757965,126.708237 93.651184,126.875038 
	C79.039864,127.217979 65.979019,132.475052 53.478420,139.258820 
	C37.402267,147.982956 24.604441,160.446945 15.439814,176.222488 
	C10.229932,185.190521 6.269863,194.884613 1.373477,204.125870 
	C1.000000,136.416565 1.000000,68.833130 1.000000,1.000000 
	C51.687286,1.000000 102.374985,1.000000 153.828552,1.349913 
	C153.150726,2.121218 151.643387,2.401479 150.285843,3.013845 
	C149.387695,3.418990 148.704483,4.300606 147.925034,4.968904 
z"/>
<path fill="#EAFFEE" opacity="1.000000" stroke="none" 
	d="
M559.000000,283.750000 
	C472.270844,284.010956 385.541656,284.021942 298.368774,284.222565 
	C299.702728,283.821960 301.479553,282.718658 303.258148,282.715820 
	C359.722839,282.626312 416.187683,282.635620 472.652527,282.647980 
	C501.134094,282.654205 529.615662,282.695129 558.548584,282.860168 
	C559.000000,283.000000 559.000000,283.500000 559.000000,283.750000 
z"/>
<path fill="#D1F1D5" opacity="1.000000" stroke="none" 
	d="
M148.354721,5.009472 
	C148.704483,4.300606 149.387695,3.418990 150.285843,3.013845 
	C151.643387,2.401479 153.150726,2.121218 154.297211,1.349913 
	C159.688034,1.000000 165.376083,1.000000 171.532059,1.000000 
	C166.704285,1.903131 161.407028,2.797284 156.113556,3.713388 
	C153.666687,4.136850 151.227234,4.603157 148.354721,5.009472 
z"/>
<path fill="#D1F1D5" opacity="1.000000" stroke="none" 
	d="
M16.294395,213.594055 
	C11.582598,213.670166 6.744559,213.360764 1.453260,213.025681 
	C1.000000,211.933334 1.000000,210.866653 1.000002,209.399994 
	C2.207135,209.767502 3.325213,210.933914 4.638246,211.227051 
	C8.439553,212.075653 12.319234,212.573212 16.294395,213.594055 
z"/>
<path fill="#5FCC6C" opacity="1.000000" stroke="none" 
	d="
M197.077530,1.894806 
	C191.910049,1.798729 186.742569,1.702653 181.287537,1.303288 
	C186.022095,1.000000 191.044189,1.000000 196.548523,1.224047 
	C197.030777,1.448094 197.077530,1.894806 197.077530,1.894806 
z"/>
<path fill="#7EDF8D" opacity="1.000000" stroke="none" 
	d="
M197.457825,1.931906 
	C197.077530,1.894806 197.030777,1.448094 197.015381,1.224047 
	C198.388885,1.000000 199.777786,1.000000 201.583344,1.000000 
	C200.612701,1.323003 199.225418,1.646005 197.457825,1.931906 
z"/>
<path fill="#000000" opacity="1.000000" stroke="none" 
	d="
M216.666672,1.000001 
	C216.795074,1.606068 216.590149,2.212136 216.385208,2.818202 
	C215.802399,2.437885 215.219589,2.057568 214.818390,1.338626 
	C215.444443,1.000000 215.888901,1.000000 216.666672,1.000001 
z"/>
<path fill="#000000" opacity="1.000000" stroke="none" 
	d="
M387.657135,158.706543 
	C402.447876,161.926193 415.803284,168.289047 426.344452,179.119278 
	C433.715149,186.692139 439.448639,195.726791 441.613770,207.233032 
	C440.947632,208.556305 439.834686,209.902115 438.718628,209.904678 
	C392.947235,210.010208 347.175568,209.994934 300.768524,209.994934 
	C301.161835,208.540878 301.479614,207.365952 301.797424,206.191025 
	C306.633636,186.443970 318.411591,172.607574 337.288208,165.051941 
	C343.255127,162.663589 349.498779,160.966614 356.424988,158.841476 
	C367.375153,158.722000 377.516144,158.714279 387.657135,158.706543 
z"/>
<path fill="#DFFCE4" opacity="1.000000" stroke="none" 
	d="
M301.478027,206.266602 
	C301.479614,207.365952 301.161835,208.540878 300.768524,209.994934 
	C347.175568,209.994934 392.947235,210.010208 438.718628,209.904678 
	C439.834686,209.902115 440.947632,208.556305 441.955505,207.398865 
	C442.340027,208.056396 442.831085,209.152023 443.557251,210.772263 
	C395.231537,210.772263 347.697021,210.772263 299.449066,210.772263 
	C300.092194,209.105637 300.625397,207.723907 301.478027,206.266602 
z"/>
<path fill="#D7F6DB" opacity="1.000000" stroke="none" 
	d="
M434.210938,329.132751 
	C434.909302,328.694000 436.087860,328.043793 437.267212,328.042297 
	C476.069183,327.993469 514.871216,328.006165 553.673218,328.021912 
	C553.982910,328.022034 554.292480,328.187469 555.300964,328.474915 
	C554.809814,331.192444 554.307678,333.970551 553.433716,336.910767 
	C553.213745,334.689423 553.365723,332.306030 553.562256,329.223755 
	C513.916382,329.223755 474.303955,329.223755 434.210938,329.132751 
z"/>
<path fill="#CBF0D0" opacity="1.000000" stroke="none" 
	d="
M135.312256,361.429077 
	C116.400543,361.678619 97.267715,361.713806 77.717667,361.710419 
	C77.952225,361.229126 78.575592,360.450500 79.259918,360.392609 
	C97.894676,358.816681 116.520302,358.300079 135.312256,361.429077 
z"/>
<path fill="#C6EDCB" opacity="1.000000" stroke="none" 
	d="
M387.491547,158.418457 
	C377.516144,158.714279 367.375153,158.722000 356.835876,158.695923 
	C361.882233,157.830200 367.313904,156.459091 372.775360,156.327866 
	C377.608337,156.211716 382.474457,157.475677 387.491547,158.418457 
z"/>
<path fill="#BFEBC5" opacity="1.000000" stroke="none" 
	d="
M14.577215,374.503418 
	C15.472704,365.400391 16.663372,356.134460 18.027645,346.519470 
	C17.359833,353.983490 16.534285,361.798370 15.663785,369.608246 
	C15.486889,371.195343 15.140595,372.763580 14.577215,374.503418 
z"/>
<path fill="#D4F1D9" opacity="1.000000" stroke="none" 
	d="
M115.087677,125.483597 
	C116.758980,125.054146 118.575073,124.953438 120.889397,124.825096 
	C121.078430,118.102959 119.992355,111.742279 116.495216,105.540115 
	C121.502014,111.250099 122.376518,118.511490 123.023285,126.844406 
	C119.973625,126.440407 117.603043,126.126366 115.087677,125.483597 
z"/>
<path fill="#C6EBCB" opacity="1.000000" stroke="none" 
	d="
M297.642273,285.092194 
	C298.860046,292.148926 299.794617,299.531647 300.700623,307.303009 
	C299.684784,303.688324 298.428741,299.727081 297.793640,295.668640 
	C297.268280,292.311371 297.476135,288.839355 297.642273,285.092194 
z"/>
<path fill="#C8F1D0" opacity="1.000000" stroke="none" 
	d="
M360.613647,360.395874 
	C369.103180,360.223206 377.942078,360.201141 387.221558,360.214752 
	C378.762451,360.349152 369.862701,360.447815 360.613647,360.395874 
z"/>
<path fill="#D1F1D5" opacity="1.000000" stroke="none" 
	d="
M22.384464,214.473633 
	C21.551601,214.423798 20.575420,214.174515 19.266182,213.894745 
	C20.035799,214.000900 21.138472,214.137543 22.384464,214.473633 
z"/>
<path fill="#D1F1D5" opacity="1.000000" stroke="none" 
	d="
M17.941769,213.738098 
	C17.941401,214.116028 17.442421,214.306061 16.703497,214.232941 
	C16.790085,213.829926 17.116619,213.690063 17.941769,213.738098 
z"/>
<path fill="#D7F6DB" opacity="1.000000" stroke="none" 
	d="
M552.803833,336.893677 
	C553.049133,337.236877 553.020081,337.417053 552.932739,337.866638 
	C552.759521,337.667542 552.644531,337.199127 552.803833,336.893677 
z"/>
</svg>